<?xml version="1.0" encoding="UTF-8"?>
<!DOCTYPE svg PUBLIC "-//W3C//DTD SVG 1.1//EN" "http://www.w3.org/Graphics/SVG/1.1/DTD/svg11.dtd">
<svg xmlns="http://www.w3.org/2000/svg" version="1.1" width="406px" height="404px" style="shape-rendering:geometricPrecision; text-rendering:geometricPrecision; image-rendering:optimizeQuality; fill-rule:evenodd; clip-rule:evenodd" xmlns:xlink="http://www.w3.org/1999/xlink">
<g><path style="opacity:1" fill="#d66892" d="M 322.5,33.5 C 322.5,33.8333 322.5,34.1667 322.5,34.5C 244.166,34.3333 165.833,34.5 87.5,35C 78.8805,35.7395 70.5471,37.5728 62.5,40.5C 67.5855,37.0783 73.2522,34.9116 79.5,34C 160.499,33.5 241.499,33.3333 322.5,33.5 Z"/></g>
<g><path style="opacity:0.898" fill="#e69fb9" d="M 322.5,34.5 C 322.5,34.1667 322.5,33.8333 322.5,33.5C 325.428,33.5651 328.095,34.2318 330.5,35.5C 327.721,35.7214 325.054,35.388 322.5,34.5 Z"/></g>
<g><path style="opacity:1" fill="#eb5990" d="M 322.5,34.5 C 325.054,35.388 327.721,35.7214 330.5,35.5C 330.369,36.3764 330.702,37.0431 331.5,37.5C 338.028,39.7847 344.362,42.4514 350.5,45.5C 351.833,46.5 353.167,47.5 354.5,48.5C 354.427,50.0269 355.094,51.0269 356.5,51.5C 357.5,51.8333 358.167,52.5 358.5,53.5C 358.738,55.4044 359.738,56.7377 361.5,57.5C 364.258,60.678 366.258,64.3447 367.5,68.5C 367.949,74.8933 368.782,81.2267 370,87.5C 370.5,164.833 370.667,242.166 370.5,319.5C 368.983,322.587 368.316,325.921 368.5,329.5C 367.001,330.678 366.001,332.345 365.5,334.5C 364.914,334.291 364.414,333.957 364,333.5C 361.676,339.63 359.176,345.63 356.5,351.5C 353.535,352.645 350.535,353.811 347.5,355C 348.5,355.333 349.5,355.667 350.5,356C 347.684,356.984 345.684,358.817 344.5,361.5C 339.923,361.524 336.256,363.19 333.5,366.5C 330.603,366.125 327.937,366.625 325.5,368C 244.833,368.667 164.167,368.667 83.5,368C 78.5474,366.84 73.5474,366.007 68.5,365.5C 68.5858,364.504 68.2524,363.671 67.5,363C 64.2522,361.54 60.9188,360.374 57.5,359.5C 56.7377,357.738 55.4044,356.738 53.5,356.5C 51.1667,354.833 49.1667,352.833 47.5,350.5C 47.0399,346.703 45.0399,344.036 41.5,342.5C 39.659,340.151 38.3257,337.485 37.5,334.5C 37.0272,329.613 36.0272,324.946 34.5,320.5C 34.3333,242.833 34.5,165.166 35,87.5C 35.4394,81.1023 36.2727,74.7689 37.5,68.5C 38.7417,64.3447 40.7417,60.678 43.5,57.5C 46.1428,55.1905 48.9761,53.1905 52,51.5C 52.49,50.2068 52.6567,48.8734 52.5,47.5C 54.7488,46.9202 56.4154,45.5869 57.5,43.5C 59.0269,43.573 60.0269,42.9063 60.5,41.5C 60.8417,40.6618 61.5084,40.3284 62.5,40.5C 70.5471,37.5728 78.8805,35.7395 87.5,35C 165.833,34.5 244.166,34.3333 322.5,34.5 Z"/></g>
<g><path style="opacity:0.933" fill="#e9a5be" d="M 60.5,41.5 C 60.0269,42.9063 59.0269,43.573 57.5,43.5C 57.9731,42.0937 58.9731,41.427 60.5,41.5 Z"/></g>
<g><path style="opacity:1" fill="#e48aac" d="M 330.5,35.5 C 338.032,37.2659 344.699,40.5992 350.5,45.5C 344.362,42.4514 338.028,39.7847 331.5,37.5C 330.702,37.0431 330.369,36.3764 330.5,35.5 Z"/></g>
<g><path style="opacity:1" fill="#e496b2" d="M 57.5,43.5 C 56.4154,45.5869 54.7488,46.9202 52.5,47.5C 53.5846,45.4131 55.2512,44.0798 57.5,43.5 Z"/></g>
<g><path style="opacity:0.733" fill="#f7c7d8" d="M 354.5,48.5 C 355.906,48.9731 356.573,49.9731 356.5,51.5C 355.094,51.0269 354.427,50.0269 354.5,48.5 Z"/></g>
<g><path style="opacity:1" fill="#e07da2" d="M 52.5,47.5 C 52.6567,48.8734 52.49,50.2068 52,51.5C 48.9761,53.1905 46.1428,55.1905 43.5,57.5C 45.7657,53.5644 48.7657,50.2311 52.5,47.5 Z"/></g>
<g><path style="opacity:1" fill="#e7a8c1" d="M 358.5,53.5 C 360.262,54.2623 361.262,55.5956 361.5,57.5C 359.738,56.7377 358.738,55.4044 358.5,53.5 Z"/></g>
<g><path style="opacity:1" fill="#d56791" d="M 37.5,68.5 C 36.2727,74.7689 35.4394,81.1023 35,87.5C 34.5,165.166 34.3333,242.833 34.5,320.5C 34.5,321.167 34.1667,321.5 33.5,321.5C 33.3333,240.499 33.5,159.499 34,78.5C 34.7013,74.8909 35.8679,71.5575 37.5,68.5 Z"/></g>
<g><path style="opacity:1" fill="#d66791" d="M 367.5,68.5 C 369.132,71.5575 370.299,74.8909 371,78.5C 371.5,158.833 371.667,239.166 371.5,319.5C 371.167,319.5 370.833,319.5 370.5,319.5C 370.667,242.166 370.5,164.833 370,87.5C 368.782,81.2267 367.949,74.8933 367.5,68.5 Z"/></g>
<g><path style="opacity:1" fill="#df6291" d="M 187.5,91.5 C 184.545,94.5748 182.211,98.0748 180.5,102C 165.167,102.333 149.833,102.667 134.5,103C 124.946,104.601 117.612,109.435 112.5,117.5C 112.714,115.856 112.38,114.356 111.5,113C 112.449,112.383 113.282,112.549 114,113.5C 114.617,112.551 114.451,111.718 113.5,111C 114.938,110.781 116.271,110.281 117.5,109.5C 117.291,108.914 116.957,108.414 116.5,108C 118.392,107.027 120.392,106.36 122.5,106C 122.167,105.667 121.833,105.333 121.5,105C 123.224,104.552 123.891,103.718 123.5,102.5C 126.997,103.369 130.331,102.869 133.5,101C 142.827,100.5 152.161,100.334 161.5,100.5C 162.167,95.1667 162.833,95.1667 163.5,100.5C 169.167,100.5 174.833,100.5 180.5,100.5C 180.67,99.1779 180.337,98.0113 179.5,97C 180.448,96.5172 181.448,96.3505 182.5,96.5C 181.795,93.7557 181.795,91.089 182.5,88.5C 184.529,87.3707 184.863,87.8707 183.5,90C 185.058,90.21 186.391,90.71 187.5,91.5 Z"/></g>
<g><path style="opacity:1" fill="#d36891" d="M 224.5,101.5 C 240.17,101.333 255.837,101.5 271.5,102C 274.051,102.002 276.051,102.836 277.5,104.5C 274.904,103.735 272.237,103.401 269.5,103.5C 254.5,102.833 239.5,102.167 224.5,101.5 Z"/></g>
<g><path style="opacity:1" fill="#fed0e9" d="M 222.5,98.5 C 223.401,99.2905 224.068,100.29 224.5,101.5C 239.5,102.167 254.5,102.833 269.5,103.5C 253.833,103.5 238.167,103.5 222.5,103.5C 222.5,101.833 222.5,100.167 222.5,98.5 Z"/></g>
<g><path style="opacity:1" fill="#feeef8" d="M 222.5,98.5 C 222.5,100.167 222.5,101.833 222.5,103.5C 238.167,103.5 253.833,103.5 269.5,103.5C 272.237,103.401 274.904,103.735 277.5,104.5C 287.236,109.237 293.236,116.903 295.5,127.5C 295.5,181.833 295.5,236.167 295.5,290.5C 295.737,291.791 295.404,292.791 294.5,293.5C 292.919,302.085 288.252,308.418 280.5,312.5C 282.109,309.886 284.109,307.553 286.5,305.5C 285.3,304.708 283.967,304.708 282.5,305.5C 282.833,304.833 283.167,304.167 283.5,303.5C 286.786,300.6 288.786,296.933 289.5,292.5C 290.665,237.335 290.832,182.002 290,126.5C 289.626,124.509 288.793,122.842 287.5,121.5C 284.408,114.61 279.075,110.61 271.5,109.5C 270.737,108.732 269.737,108.232 268.5,108C 259.84,107.5 251.173,107.334 242.5,107.5C 242.666,114.508 242.5,121.508 242,128.5C 241.163,132.157 239.33,135.157 236.5,137.5C 235.508,137.328 234.842,137.662 234.5,138.5C 214.21,139.643 193.877,139.81 173.5,139C 169.843,138.163 166.843,136.33 164.5,133.5C 164.107,131.716 163.441,130.05 162.5,128.5C 162.5,121.5 162.5,114.5 162.5,107.5C 153.494,107.334 144.494,107.5 135.5,108C 132.334,108.322 129.667,109.489 127.5,111.5C 126.508,111.328 125.842,111.662 125.5,112.5C 122.5,113.5 120.5,115.5 119.5,118.5C 116.987,120.533 115.487,123.199 115,126.5C 114.333,181.833 114.333,237.167 115,292.5C 116.139,296.112 117.806,299.446 120,302.5C 121.451,304.464 123.284,305.797 125.5,306.5C 127.09,308.234 129.09,309.4 131.5,310C 178.335,310.832 225.002,310.665 271.5,309.5C 273.565,309.483 275.565,309.15 277.5,308.5C 275.758,309.957 273.758,311.124 271.5,312C 225.167,312.333 178.833,312.667 132.5,313C 132.167,313.333 131.833,313.667 131.5,314C 135.528,314.392 139.528,314.892 143.5,315.5C 186.167,315.5 228.833,315.5 271.5,315.5C 271.5,315.833 271.5,316.167 271.5,316.5C 226.165,316.667 180.832,316.5 135.5,316C 133.134,315.56 130.801,315.06 128.5,314.5C 117.694,310.029 111.361,302.029 109.5,290.5C 109.5,236.167 109.5,181.833 109.5,127.5C 109.92,123.993 110.92,120.659 112.5,117.5C 117.612,109.435 124.946,104.601 134.5,103C 149.833,102.667 165.167,102.333 180.5,102C 182.211,98.0748 184.545,94.5748 187.5,91.5C 197.509,84.8251 207.509,84.9918 217.5,92C 219.765,93.7581 221.432,95.9248 222.5,98.5 Z"/></g>
<g><path style="opacity:1" fill="#eb5990" d="M 220.5,107.5 C 225.056,109.442 230.056,110.108 235.5,109.5C 235.73,116.555 235.23,123.555 234,130.5C 232.951,129.483 231.784,129.316 230.5,130C 230.957,130.414 231.291,130.914 231.5,131.5C 212.175,132.666 192.842,132.833 173.5,132C 171.68,131.021 170.513,129.521 170,127.5C 169.501,121.509 169.334,115.509 169.5,109.5C 174.619,110.103 179.285,109.436 183.5,107.5C 185.609,102.818 188.609,98.651 192.5,95C 206.381,89.2312 215.714,93.3978 220.5,107.5 Z"/></g>
<g><path style="opacity:1" fill="#de7ca0" d="M 162.5,128.5 C 161.815,122.433 161.149,116.266 160.5,110C 149.372,108.956 138.372,109.456 127.5,111.5C 129.667,109.489 132.334,108.322 135.5,108C 144.494,107.5 153.494,107.334 162.5,107.5C 162.5,114.5 162.5,121.5 162.5,128.5 Z"/></g>
<g><path style="opacity:1" fill="#eb5990" d="M 162.5,128.5 C 163.441,130.05 164.107,131.716 164.5,133.5C 164.343,134.873 164.51,136.207 165,137.5C 166.947,138.11 168.781,138.943 170.5,140C 191.5,140.667 212.5,140.667 233.5,140C 234.056,139.617 234.389,139.117 234.5,138.5C 234.842,137.662 235.508,137.328 236.5,137.5C 240.389,135.757 242.889,132.757 244,128.5C 244.5,122.175 244.666,115.842 244.5,109.5C 253.5,109.5 262.5,109.5 271.5,109.5C 279.075,110.61 284.408,114.61 287.5,121.5C 287.517,123.565 287.85,125.565 288.5,127.5C 288.667,182.168 288.5,236.834 288,291.5C 287.667,291.167 287.333,290.833 287,290.5C 286.503,292.81 286.337,295.143 286.5,297.5C 285.5,297.5 284.5,297.5 283.5,297.5C 283.5,299.5 283.5,301.5 283.5,303.5C 283.167,304.167 282.833,304.833 282.5,305.5C 280.566,306.11 278.899,307.11 277.5,308.5C 275.565,309.15 273.565,309.483 271.5,309.5C 225.165,309.667 178.832,309.5 132.5,309C 130.348,307.587 128.014,306.754 125.5,306.5C 124.815,304.586 124.315,302.586 124,300.5C 123.333,301.833 122.667,301.833 122,300.5C 121.517,299.552 121.351,298.552 121.5,297.5C 119.089,297.863 117.589,296.863 117,294.5C 116.167,238.164 116.333,181.83 117.5,125.5C 118.421,123.223 119.087,120.89 119.5,118.5C 121.833,116.833 123.833,114.833 125.5,112.5C 125.842,111.662 126.508,111.328 127.5,111.5C 138.372,109.456 149.372,108.956 160.5,110C 161.149,116.266 161.815,122.433 162.5,128.5 Z"/></g>
<g><path style="opacity:1" fill="#f4a1c1" d="M 221.5,107.5 C 226.833,107.5 232.167,107.5 237.5,107.5C 237.824,114.354 237.491,121.021 236.5,127.5C 236.5,121.167 236.5,114.833 236.5,108.5C 231.305,108.821 226.305,108.487 221.5,107.5 Z"/></g>
<g><path style="opacity:1" fill="#d87d9e" d="M 125.5,112.5 C 123.833,114.833 121.833,116.833 119.5,118.5C 120.5,115.5 122.5,113.5 125.5,112.5 Z"/></g>
<g><path style="opacity:1" fill="#dc769b" d="M 271.5,109.5 C 262.5,109.5 253.5,109.5 244.5,109.5C 244.666,115.842 244.5,122.175 244,128.5C 242.889,132.757 240.389,135.757 236.5,137.5C 239.33,135.157 241.163,132.157 242,128.5C 242.5,121.508 242.666,114.508 242.5,107.5C 251.173,107.334 259.84,107.5 268.5,108C 269.737,108.232 270.737,108.732 271.5,109.5 Z"/></g>
<g><path style="opacity:1" fill="#fdfefe" d="M 112.5,121.5 C 113.586,121.62 114.253,122.287 114.5,123.5C 113.892,126.145 113.392,128.812 113,131.5C 112.833,184.503 112.333,237.503 111.5,290.5C 111.167,263.167 110.833,235.833 110.5,208.5C 110.541,179.1 111.208,150.1 112.5,121.5 Z"/></g>
<g><path style="opacity:1" fill="#fdfefe" d="M 294.5,293.5 C 293.778,293.082 293.278,292.416 293,291.5C 292.833,264.167 292.667,236.833 292.5,209.5C 292.337,181.689 292.837,154.023 294,126.5C 294.5,182.166 294.667,237.832 294.5,293.5 Z"/></g>
<g><path style="opacity:1" fill="#df7099" d="M 183.5,107.5 C 179.285,109.436 174.619,110.103 169.5,109.5C 169.334,115.509 169.501,121.509 170,127.5C 170.513,129.521 171.68,131.021 173.5,132C 192.842,132.833 212.175,132.666 231.5,131.5C 231.291,130.914 230.957,130.414 230.5,130C 231.784,129.316 232.951,129.483 234,130.5C 235.23,123.555 235.73,116.555 235.5,109.5C 230.056,110.108 225.056,109.442 220.5,107.5C 220.833,107.5 221.167,107.5 221.5,107.5C 226.305,108.487 231.305,108.821 236.5,108.5C 236.5,114.833 236.5,121.167 236.5,127.5C 236.152,130.019 234.819,131.853 232.5,133C 212.5,133.667 192.5,133.667 172.5,133C 170.274,131.773 168.774,129.939 168,127.5C 167.333,121.167 167.333,114.833 168,108.5C 173.072,107.529 178.238,107.195 183.5,107.5 Z"/></g>
<g><path style="opacity:1" fill="#cb6b8f" d="M 287.5,121.5 C 288.793,122.842 289.626,124.509 290,126.5C 290.832,182.002 290.665,237.335 289.5,292.5C 289.832,237.331 289.499,182.331 288.5,127.5C 287.85,125.565 287.517,123.565 287.5,121.5 Z"/></g>
<g><path style="opacity:1" fill="#db6390" d="M 119.5,118.5 C 119.087,120.89 118.421,123.223 117.5,125.5C 116.333,181.83 116.167,238.164 117,294.5C 117.589,296.863 119.089,297.863 121.5,297.5C 121.351,298.552 121.517,299.552 122,300.5C 122.667,301.833 123.333,301.833 124,300.5C 124.315,302.586 124.815,304.586 125.5,306.5C 123.284,305.797 121.451,304.464 120,302.5C 117.806,299.446 116.139,296.112 115,292.5C 114.333,237.167 114.333,181.833 115,126.5C 115.487,123.199 116.987,120.533 119.5,118.5 Z"/></g>
<g><path style="opacity:1" fill="#e87ba3" d="M 295.5,127.5 C 296.833,153.992 297.5,180.825 297.5,208C 297.333,234.833 297.167,261.667 297,288.5C 296.722,289.416 296.222,290.082 295.5,290.5C 295.5,236.167 295.5,181.833 295.5,127.5 Z"/></g>
<g><path style="opacity:1" fill="#d6648f" d="M 164.5,133.5 C 166.843,136.33 169.843,138.163 173.5,139C 193.877,139.81 214.21,139.643 234.5,138.5C 234.389,139.117 234.056,139.617 233.5,140C 212.5,140.667 191.5,140.667 170.5,140C 168.781,138.943 166.947,138.11 165,137.5C 164.51,136.207 164.343,134.873 164.5,133.5 Z"/></g>
<g><path style="opacity:1" fill="#e57ba2" d="M 109.5,127.5 C 109.5,181.833 109.5,236.167 109.5,290.5C 108.732,289.737 108.232,288.737 108,287.5C 107.833,260.833 107.667,234.167 107.5,207.5C 107.5,180.492 108.167,153.825 109.5,127.5 Z"/></g>
<g><path style="opacity:1" fill="#e15f8f" d="M 288.5,127.5 C 289.499,182.331 289.832,237.331 289.5,292.5C 288.786,296.933 286.786,300.6 283.5,303.5C 283.5,301.5 283.5,299.5 283.5,297.5C 284.5,297.5 285.5,297.5 286.5,297.5C 286.337,295.143 286.503,292.81 287,290.5C 287.333,290.833 287.667,291.167 288,291.5C 288.5,236.834 288.667,182.168 288.5,127.5 Z"/></g>
<g><path style="opacity:1" fill="#d16790" d="M 212.5,190.5 C 228.995,189.338 245.662,189.172 262.5,190C 263.056,190.383 263.389,190.883 263.5,191.5C 246.547,190.528 229.547,190.195 212.5,190.5 Z"/></g>
<g><path style="opacity:1" fill="#ffe0f1" d="M 191.5,190.5 C 194.018,192.357 194.018,194.19 191.5,196C 174.833,196.667 158.167,196.667 141.5,196C 140.62,194.644 140.286,193.144 140.5,191.5C 157.423,190.515 174.423,190.182 191.5,190.5 Z"/></g>
<g><path style="opacity:1" fill="#ffe8f5" d="M 212.5,190.5 C 229.547,190.195 246.547,190.528 263.5,191.5C 263.5,192.833 263.5,194.167 263.5,195.5C 246.574,196.651 229.574,196.818 212.5,196C 209.982,194.19 209.982,192.357 212.5,190.5 Z"/></g>
<g><path style="opacity:1" fill="#d66590" d="M 191.5,190.5 C 195.068,191.969 195.402,194.136 192.5,197C 175.167,197.667 157.833,197.667 140.5,197C 139.193,195.057 139.193,193.223 140.5,191.5C 140.286,193.144 140.62,194.644 141.5,196C 158.167,196.667 174.833,196.667 191.5,196C 194.018,194.19 194.018,192.357 191.5,190.5 Z"/></g>
<g><path style="opacity:1" fill="#fefeff" d="M 142.5,193.5 C 158.672,192.173 175.005,192.173 191.5,193.5C 175.103,194.817 158.769,194.817 142.5,193.5 Z"/></g>
<g><path style="opacity:1" fill="#d5658f" d="M 212.5,190.5 C 209.982,192.357 209.982,194.19 212.5,196C 229.574,196.818 246.574,196.651 263.5,195.5C 255.193,196.831 246.527,197.498 237.5,197.5C 228.833,197.333 220.167,197.167 211.5,197C 209.771,195.211 209.104,193.044 209.5,190.5C 210.5,190.5 211.5,190.5 212.5,190.5 Z"/></g>
<g><path style="opacity:1" fill="#da6490" d="M 141.5,255.5 C 158.662,254.338 175.995,254.171 193.5,255C 194.591,257.064 194.758,259.231 194,261.5C 185.075,262.16 176.075,262.493 167,262.5C 157.807,262.498 148.974,261.832 140.5,260.5C 157.426,261.651 174.426,261.818 191.5,261C 194.167,259.333 194.167,257.667 191.5,256C 174.837,255.5 158.17,255.333 141.5,255.5 Z"/></g>
<g><path style="opacity:1" fill="#d96490" d="M 210.5,254.5 C 228.17,254.333 245.836,254.5 263.5,255C 264.833,257.333 264.833,259.667 263.5,262C 246.167,262.667 228.833,262.667 211.5,262C 209.285,259.758 208.952,257.258 210.5,254.5 Z"/></g>
<g><path style="opacity:1" fill="#feecf5" d="M 141.5,255.5 C 158.17,255.333 174.837,255.5 191.5,256C 194.167,257.667 194.167,259.333 191.5,261C 174.426,261.818 157.426,261.651 140.5,260.5C 140.366,258.708 140.699,257.042 141.5,255.5 Z"/></g>
<g><path style="opacity:1" fill="#feecf5" d="M 211.5,255.5 C 228.503,255.333 245.503,255.5 262.5,256C 263.833,257.667 263.833,259.333 262.5,261C 245.833,261.667 229.167,261.667 212.5,261C 210.17,259.512 209.836,257.679 211.5,255.5 Z"/></g>
<g><path style="opacity:1" fill="#fefdfe" d="M 280.5,312.5 C 279.609,313.11 278.609,313.443 277.5,313.5C 232.687,314.146 188.02,314.813 143.5,315.5C 139.528,314.892 135.528,314.392 131.5,314C 131.833,313.667 132.167,313.333 132.5,313C 178.833,312.667 225.167,312.333 271.5,312C 273.758,311.124 275.758,309.957 277.5,308.5C 278.899,307.11 280.566,306.11 282.5,305.5C 283.967,304.708 285.3,304.708 286.5,305.5C 284.109,307.553 282.109,309.886 280.5,312.5 Z"/></g>
<g><path style="opacity:1" fill="#d56590" d="M 125.5,306.5 C 128.014,306.754 130.348,307.587 132.5,309C 178.832,309.5 225.165,309.667 271.5,309.5C 225.002,310.665 178.335,310.832 131.5,310C 129.09,309.4 127.09,308.234 125.5,306.5 Z"/></g>
<g><path style="opacity:1" fill="#fff6fe" d="M 277.5,313.5 C 275.786,314.738 273.786,315.405 271.5,315.5C 228.833,315.5 186.167,315.5 143.5,315.5C 188.02,314.813 232.687,314.146 277.5,313.5 Z"/></g>
<g><path style="opacity:1" fill="#d2698f" d="M 128.5,314.5 C 130.801,315.06 133.134,315.56 135.5,316C 180.832,316.5 226.165,316.667 271.5,316.5C 225.668,317.665 179.668,317.832 133.5,317C 131.347,316.901 129.681,316.067 128.5,314.5 Z"/></g>
<g><path style="opacity:1" fill="#e791b1" d="M 370.5,319.5 C 370.833,319.5 371.167,319.5 371.5,319.5C 371.238,324.888 369.905,329.888 367.5,334.5C 367.366,332.708 367.699,331.042 368.5,329.5C 368.316,325.921 368.983,322.587 370.5,319.5 Z"/></g>
<g><path style="opacity:1" fill="#e594b3" d="M 34.5,320.5 C 36.0272,324.946 37.0272,329.613 37.5,334.5C 35.4111,330.499 34.0777,326.165 33.5,321.5C 34.1667,321.5 34.5,321.167 34.5,320.5 Z"/></g>
<g><path style="opacity:1" fill="#e6779f" d="M 368.5,329.5 C 367.699,331.042 367.366,332.708 367.5,334.5C 365.574,341.368 361.907,347.034 356.5,351.5C 359.176,345.63 361.676,339.63 364,333.5C 364.414,333.957 364.914,334.291 365.5,334.5C 366.001,332.345 367.001,330.678 368.5,329.5 Z"/></g>
<g><path style="opacity:1" fill="#e280a4" d="M 41.5,342.5 C 45.0399,344.036 47.0399,346.703 47.5,350.5C 44.5293,348.557 42.5293,345.891 41.5,342.5 Z"/></g>
<g><path style="opacity:1" fill="#e37da2" d="M 356.5,351.5 C 353.381,355.957 349.381,359.291 344.5,361.5C 345.684,358.817 347.684,356.984 350.5,356C 349.5,355.667 348.5,355.333 347.5,355C 350.535,353.811 353.535,352.645 356.5,351.5 Z"/></g>
<g><path style="opacity:0.992" fill="#eeaec8" d="M 53.5,356.5 C 55.4044,356.738 56.7377,357.738 57.5,359.5C 55.5956,359.262 54.2623,358.262 53.5,356.5 Z"/></g>
<g><path style="opacity:1" fill="#e07ea2" d="M 57.5,359.5 C 60.9188,360.374 64.2522,361.54 67.5,363C 68.2524,363.671 68.5858,364.504 68.5,365.5C 64.3447,364.258 60.678,362.258 57.5,359.5 Z"/></g>
<g><path style="opacity:1" fill="#e287a9" d="M 344.5,361.5 C 341.249,363.957 337.582,365.624 333.5,366.5C 336.256,363.19 339.923,361.524 344.5,361.5 Z"/></g>
<g><path style="opacity:1" fill="#d66a93" d="M 68.5,365.5 C 73.5474,366.007 78.5474,366.84 83.5,368C 164.167,368.667 244.833,368.667 325.5,368C 327.937,366.625 330.603,366.125 333.5,366.5C 331.438,367.776 329.104,368.61 326.5,369C 243.833,369.667 161.167,369.667 78.5,369C 74.8909,368.299 71.5575,367.132 68.5,365.5 Z"/></g>
</svg>
